<?xml version="1.0" encoding="UTF-8"?>
<!DOCTYPE svg PUBLIC "-//W3C//DTD SVG 1.1//EN" "http://www.w3.org/Graphics/SVG/1.1/DTD/svg11.dtd">
<!-- Creator: CorelDRAW 2020 (64-Bit) -->
<svg xmlns="http://www.w3.org/2000/svg" xml:space="preserve" width="50.0433mm" height="50.7576mm" version="1.1" style="shape-rendering:geometricPrecision; text-rendering:geometricPrecision; image-rendering:optimizeQuality; fill-rule:evenodd; clip-rule:evenodd"
viewBox="0 0 209.19 212.17"
 xmlns:xlink="http://www.w3.org/1999/xlink"
 xmlns:xodm="http://www.corel.com/coreldraw/odm/2003">
 <defs>
  <style type="text/css">
   <![CDATA[
    .fil1 {fill:none}
    .fil0 {fill:white}
   ]]>
  </style>
 </defs>
 <g id="Layer_x0020_1">
  <metadata id="CorelCorpID_0Corel-Layer"/>
  <g id="_1911691069632">
   <path class="fil0" d="M191.88 152.16c2.88,-8.11 2.38,-87.99 0.77,-99.88l-13.97 -0.17c1.31,-6.54 4.57,-5.71 12.32,-5.28 7.26,0.4 7.25,1.26 7.4,8.58 0.27,13.9 0.9,98.13 -0.99,100.46l-6.37 1.69c-14.67,1.36 -103.93,-0.08 -107.41,-0.77 9.76,-8.6 36.79,-4.33 51.76,-4.33 17.75,0 39.2,1.08 56.5,-0.29zm-39.18 -146.23c11.24,-1.88 11.44,-4.63 24.79,-1.56 11.58,31.92 -44.66,92.57 -64.65,112.1 -4.05,3.96 -6.23,6.64 -10.54,11.03 -14.83,15.08 -84.12,69.8 -101.02,50.16 2.29,19.83 28.61,10.61 40.63,5.27 22.37,-9.94 15.43,-15.19 45.61,-15.13 18.44,0.04 110.75,2.06 119.91,-1.51 2.91,-9.46 1.27,-51.47 1.27,-64.35 -0,-72.15 5.83,-65.07 -22.59,-65.18 1.24,-10.87 9.03,-26.02 -1.27,-33.78 -8.7,-6.56 -24.56,-0.71 -32.13,2.97z"/>
   <path class="fil0" d="M17.21 152.1c9.83,0.96 21.63,0.3 31.71,0.37 15.38,0.11 15.34,-0.31 24.61,-7.4 10.72,-8.19 26.66,-21.51 33.47,-30.17 -33.03,-1.41 -15.53,3.03 -32.41,9.65 -12.44,4.88 -25.08,-0.93 -28.5,-9.75 21.46,0.03 20.61,3.23 28.06,-11.34l-6.27 -13.77 -22.09 0c5.8,-15.28 31.63,-15.04 39.67,0.07 51.22,0.04 43.12,5.02 59.48,-16.91 4.37,-5.86 10.71,-14.23 13.38,-20.51l-141.93 -0.22c-1.4,12.69 -2.14,91.81 0.83,99.96z"/>
   <path class="fil0" d="M0.44 46.34c-0.04,33.83 -1.36,92.49 0.81,119.88 6.18,2.56 22.51,1.78 30.76,1.66 9.2,-0.14 17.09,-4.89 22.82,-9.94l-35.25 -0.43c-10.98,0.02 -8.72,2.28 -8.72,-21.6 -0,-103.73 -5.9,-88.84 21.08,-88.84l129.72 -0.15 5.6 -10 -152.36 -0.21c-11.26,-0.16 -14.44,-1.97 -14.45,9.62z"/>
   <path class="fil0" d="M56.63 212.17l95.74 -0.01c20.49,0 7.32,-11.12 -4.07,-25.87 -4.24,-5.49 -5.1,-5.86 -13.02,-6.29l-0.73 17.72c-16.14,1.76 -32.46,0.87 -48.7,0.97 -15.26,0.09 -12.19,-3.76 -12.15,-18.62 -11.74,0.45 -9.76,2.45 -19.7,15 -4.98,6.28 -16.14,17.1 2.63,17.1z"/>
   <path class="fil1" d="M178.69 52.11l13.97 0.17c1.61,11.89 2.11,91.76 -0.77,99.88 -17.3,1.37 -38.75,0.29 -56.5,0.29 -14.97,-0 -42,-4.27 -51.76,4.33 3.48,0.7 92.74,2.13 107.41,0.77l6.37 -1.69c1.89,-2.33 1.26,-86.56 0.99,-100.46 -0.14,-7.33 -0.14,-8.18 -7.4,-8.58 -7.75,-0.43 -11.01,-1.25 -12.32,5.28z"/>
   <path class="fil0" d="M79.2 192.11c6.35,2.71 44.26,2.71 50.63,0.02 0.45,-3.31 0.58,-6.62 0.63,-10 0.16,-10.96 1.93,-9.19 -25.95,-9.18 -25.89,0 -25.67,-1.88 -25.87,7.64 -0.07,3.29 0.23,8.25 0.57,11.53z"/>
  </g>
 </g>
</svg>
