<?xml version="1.0" encoding="UTF-8"?>
<!DOCTYPE svg PUBLIC "-//W3C//DTD SVG 1.1//EN" "http://www.w3.org/Graphics/SVG/1.1/DTD/svg11.dtd">
<!-- Creator: CorelDRAW 2020 (64-Bit) -->
<svg xmlns="http://www.w3.org/2000/svg" xml:space="preserve" width="61.7999mm" height="61.567mm" version="1.1" style="shape-rendering:geometricPrecision; text-rendering:geometricPrecision; image-rendering:optimizeQuality; fill-rule:evenodd; clip-rule:evenodd"
viewBox="0 0 109.97 109.55"
 xmlns:xlink="http://www.w3.org/1999/xlink"
 xmlns:xodm="http://www.corel.com/coreldraw/odm/2003">
 <defs>
  <style type="text/css">
   <![CDATA[
    .str0 {stroke:white;stroke-width:0.14;stroke-miterlimit:22.9256}
    .fil1 {fill:none}
    .fil0 {fill:white}
    .fil2 {fill:white;fill-rule:nonzero}
   ]]>
  </style>
 </defs>
 <g id="Layer_x0020_1">
  <metadata id="CorelCorpID_0Corel-Layer"/>
  <g id="_1854698415776">
   <path class="fil0" d="M92.14 64.76c1.23,-3.45 1.01,-37.46 0.33,-42.52l-5.95 -0.07c0.56,-2.78 1.95,-2.43 5.24,-2.25 3.09,0.17 3.09,0.54 3.15,3.65 0.11,5.92 0.38,41.77 -0.42,42.76l-2.71 0.72c-6.24,0.58 -44.24,-0.03 -45.72,-0.33 4.15,-3.66 15.66,-1.84 22.03,-1.84 7.56,0 16.69,0.46 24.05,-0.12l-0 -0zm-16.68 -62.25c4.78,-0.8 4.87,-1.97 10.55,-0.66 4.93,13.59 -19.01,39.4 -27.52,47.72 -1.72,1.69 -2.65,2.83 -4.49,4.7 -6.31,6.42 -35.81,29.71 -43,21.35 0.97,8.44 12.18,4.52 17.3,2.24 9.52,-4.23 6.57,-6.47 19.42,-6.44 7.85,0.02 47.14,0.88 51.04,-0.64 1.24,-4.03 0.54,-21.91 0.54,-27.39 0,-30.71 2.48,-27.7 -9.62,-27.75 0.53,-4.63 3.84,-11.08 -0.54,-14.38 -3.7,-2.79 -10.45,-0.3 -13.68,1.26l-0 -0.01z"/>
   <path class="fil0" d="M17.78 64.74c4.18,0.41 9.21,0.13 13.5,0.16 6.55,0.05 6.53,-0.13 10.48,-3.15 4.56,-3.49 11.35,-9.16 14.25,-12.84 -14.06,-0.6 -6.61,1.29 -13.8,4.11 -5.3,2.08 -10.68,-0.4 -12.13,-4.15 9.14,0.01 8.77,1.37 11.94,-4.83l-2.67 -5.86 -9.4 0c2.47,-6.5 13.46,-6.4 16.89,0.03 21.8,0.02 18.35,2.14 25.32,-7.2 1.86,-2.49 4.56,-6.06 5.7,-8.73l-60.42 -0.09c-0.6,5.4 -0.91,39.08 0.35,42.55l-0 0.01z"/>
   <path class="fil0" d="M10.65 19.72c-0.02,14.4 -0.58,39.37 0.34,51.03 2.63,1.09 9.58,0.76 13.09,0.71 3.92,-0.06 7.27,-2.08 9.71,-4.23l-15.01 -0.18c-4.67,0.01 -3.71,0.97 -3.71,-9.19 0,-44.16 -2.51,-37.82 8.97,-37.82l55.22 -0.06 2.38 -4.26 -64.86 -0.09c-4.79,-0.07 -6.15,-0.84 -6.15,4.09l-0 0z"/>
   <path class="fil0" d="M34.56 90.31l40.75 -0c8.72,0 3.12,-4.73 -1.73,-11.01 -1.8,-2.34 -2.17,-2.49 -5.54,-2.68l-0.31 7.54c-6.87,0.75 -13.82,0.37 -20.73,0.41 -6.5,0.04 -5.19,-1.6 -5.17,-7.93 -5,0.19 -4.15,1.04 -8.39,6.39 -2.12,2.67 -6.87,7.28 1.12,7.28l-0 0z"/>
   <path class="fil1" d="M86.52 22.18l5.95 0.07c0.69,5.06 0.9,39.06 -0.33,42.52 -7.36,0.58 -16.49,0.12 -24.05,0.12 -6.37,0 -17.88,-1.82 -22.03,1.84 1.48,0.3 39.48,0.91 45.72,0.33l2.71 -0.72c0.8,-0.99 0.54,-36.85 0.42,-42.76 -0.06,-3.12 -0.06,-3.48 -3.15,-3.65 -3.3,-0.18 -4.69,-0.53 -5.24,2.25l0 0z"/>
   <path class="fil0" d="M44.17 81.77c2.7,1.15 18.84,1.15 21.55,0.01 0.19,-1.41 0.25,-2.82 0.27,-4.26 0.07,-4.67 0.82,-3.91 -11.05,-3.91 -11.02,0 -10.93,-0.8 -11.01,3.25 -0.03,1.4 0.1,3.51 0.24,4.91l-0 -0z"/>
  </g>
  <path class="fil2 str0" d="M0.07 109.3l0 -10.79 1.43 0 0 9.52 5.3 0 0 1.27 -6.73 0zm8.47 0l0 -10.79 7.79 0 0 1.27 -6.36 0 0 3.31 5.95 0 0 1.27 -5.95 0 0 3.68 6.61 0 0 1.27 -8.05 0zm9.55 -3.47l1.34 -0.12c0.06,0.54 0.21,0.99 0.44,1.34 0.23,0.35 0.6,0.63 1.08,0.84 0.49,0.21 1.04,0.32 1.65,0.32 0.54,0 1.02,-0.08 1.44,-0.24 0.42,-0.16 0.73,-0.39 0.93,-0.67 0.2,-0.28 0.31,-0.59 0.31,-0.92 0,-0.34 -0.1,-0.63 -0.29,-0.88 -0.2,-0.25 -0.52,-0.46 -0.97,-0.64 -0.29,-0.11 -0.93,-0.29 -1.92,-0.52 -0.99,-0.24 -1.68,-0.46 -2.08,-0.67 -0.51,-0.27 -0.9,-0.61 -1.15,-1.01 -0.25,-0.4 -0.38,-0.85 -0.38,-1.34 0,-0.55 0.16,-1.06 0.46,-1.53 0.31,-0.47 0.76,-0.83 1.35,-1.08 0.59,-0.25 1.25,-0.37 1.98,-0.37 0.8,0 1.5,0.13 2.11,0.39 0.61,0.26 1.08,0.64 1.41,1.14 0.33,0.5 0.5,1.07 0.53,1.7l-1.37 0.11c-0.07,-0.68 -0.32,-1.2 -0.75,-1.54 -0.42,-0.35 -1.05,-0.52 -1.88,-0.52 -0.86,0 -1.49,0.16 -1.89,0.47 -0.39,0.32 -0.59,0.7 -0.59,1.15 0,0.39 0.14,0.71 0.42,0.96 0.28,0.25 0.99,0.51 2.15,0.77 1.16,0.26 1.96,0.49 2.39,0.69 0.63,0.29 1.09,0.65 1.39,1.1 0.3,0.44 0.45,0.95 0.45,1.53 0,0.58 -0.16,1.11 -0.49,1.62 -0.33,0.51 -0.8,0.9 -1.41,1.18 -0.62,0.28 -1.31,0.42 -2.08,0.42 -0.97,0 -1.79,-0.14 -2.45,-0.43 -0.66,-0.28 -1.18,-0.71 -1.55,-1.28 -0.38,-0.57 -0.57,-1.22 -0.59,-1.94zm17.58 -7.32l1.43 0 0 6.23c0,1.08 -0.12,1.95 -0.37,2.58 -0.25,0.64 -0.69,1.16 -1.33,1.55 -0.64,0.4 -1.48,0.6 -2.52,0.6 -1.01,0 -1.83,-0.17 -2.47,-0.52 -0.64,-0.35 -1.1,-0.85 -1.37,-1.51 -0.27,-0.66 -0.41,-1.56 -0.41,-2.7l0 -6.23 1.43 0 0 6.23c0,0.94 0.09,1.63 0.26,2.07 0.17,0.44 0.47,0.79 0.89,1.03 0.42,0.24 0.94,0.36 1.55,0.36 1.04,0 1.79,-0.24 2.23,-0.71 0.44,-0.48 0.67,-1.39 0.67,-2.75l0 -6.23zm3.81 10.79l0 -10.79 4.07 0c0.72,0 1.26,0.04 1.64,0.1 0.53,0.09 0.97,0.26 1.33,0.5 0.36,0.25 0.65,0.6 0.87,1.04 0.22,0.44 0.33,0.93 0.33,1.47 0,0.91 -0.29,1.69 -0.88,2.32 -0.58,0.64 -1.64,0.95 -3.17,0.95l-2.77 0 0 4.4 -1.43 0zm1.43 -5.66l2.79 0c0.92,0 1.58,-0.17 1.97,-0.51 0.39,-0.34 0.58,-0.83 0.58,-1.45 0,-0.45 -0.11,-0.84 -0.34,-1.16 -0.23,-0.32 -0.53,-0.53 -0.9,-0.64 -0.24,-0.06 -0.69,-0.1 -1.33,-0.1l-2.76 0 0 3.86zm8.62 5.66l0 -10.79 4.07 0c0.72,0 1.26,0.04 1.64,0.1 0.53,0.09 0.97,0.26 1.33,0.5 0.36,0.25 0.65,0.6 0.87,1.04 0.22,0.44 0.33,0.93 0.33,1.47 0,0.91 -0.29,1.69 -0.88,2.32 -0.58,0.64 -1.64,0.95 -3.17,0.95l-2.77 0 0 4.4 -1.43 0zm1.43 -5.66l2.79 0c0.92,0 1.58,-0.17 1.97,-0.51 0.39,-0.34 0.58,-0.83 0.58,-1.45 0,-0.45 -0.11,-0.84 -0.34,-1.16 -0.23,-0.32 -0.53,-0.53 -0.9,-0.64 -0.24,-0.06 -0.69,-0.1 -1.33,-0.1l-2.76 0 0 3.86zm8.18 0.41c0,-1.79 0.48,-3.19 1.44,-4.2 0.96,-1.01 2.2,-1.52 3.72,-1.52 1,0 1.89,0.24 2.69,0.71 0.8,0.47 1.41,1.14 1.83,1.99 0.42,0.85 0.63,1.81 0.63,2.89 0,1.09 -0.22,2.07 -0.66,2.93 -0.44,0.86 -1.07,1.52 -1.88,1.96 -0.81,0.44 -1.68,0.67 -2.62,0.67 -1.02,0 -1.92,-0.25 -2.72,-0.74 -0.8,-0.49 -1.41,-1.16 -1.82,-2.01 -0.41,-0.85 -0.62,-1.74 -0.62,-2.69zm1.48 0.03c0,1.3 0.35,2.32 1.05,3.07 0.7,0.75 1.57,1.12 2.63,1.12 1.07,0 1.96,-0.38 2.65,-1.13 0.69,-0.75 1.04,-1.82 1.04,-3.21 0,-0.88 -0.15,-1.64 -0.44,-2.3 -0.3,-0.65 -0.73,-1.16 -1.3,-1.52 -0.57,-0.36 -1.21,-0.54 -1.92,-0.54 -1.01,0 -1.88,0.35 -2.61,1.04 -0.73,0.69 -1.09,1.85 -1.09,3.47zm10.71 5.23l0 -10.79 4.78 0c0.96,0 1.69,0.1 2.19,0.29 0.5,0.19 0.9,0.53 1.2,1.02 0.3,0.49 0.45,1.03 0.45,1.62 0,0.77 -0.25,1.41 -0.74,1.94 -0.49,0.52 -1.26,0.86 -2.29,1 0.38,0.18 0.67,0.36 0.86,0.54 0.42,0.38 0.81,0.86 1.18,1.44l1.87 2.94 -1.78 0 -1.43 -2.24c-0.41,-0.65 -0.76,-1.15 -1.03,-1.49 -0.27,-0.34 -0.51,-0.58 -0.73,-0.72 -0.21,-0.14 -0.43,-0.23 -0.65,-0.29 -0.16,-0.03 -0.42,-0.05 -0.79,-0.05l-1.65 0 0 4.79 -1.43 0zm1.43 -6.03l3.06 0c0.65,0 1.16,-0.07 1.53,-0.2 0.37,-0.13 0.65,-0.35 0.83,-0.65 0.19,-0.3 0.29,-0.62 0.29,-0.97 0,-0.51 -0.18,-0.93 -0.55,-1.26 -0.37,-0.33 -0.95,-0.49 -1.75,-0.49l-3.41 0 0 3.57zm11.89 6.03l0 -9.52 -3.56 0 0 -1.27 8.54 0 0 1.27 -3.56 0 0 9.52 -1.43 0zm16.79 -1.27l0 1.27 -7.14 0c-0.01,-0.32 0.04,-0.63 0.16,-0.92 0.18,-0.48 0.48,-0.96 0.88,-1.43 0.4,-0.47 0.98,-1.01 1.73,-1.63 1.17,-0.96 1.96,-1.72 2.38,-2.28 0.42,-0.56 0.63,-1.09 0.63,-1.6 0,-0.52 -0.19,-0.97 -0.56,-1.33 -0.38,-0.36 -0.87,-0.54 -1.47,-0.54 -0.64,0 -1.15,0.19 -1.54,0.57 -0.38,0.38 -0.58,0.91 -0.58,1.58l-1.36 -0.14c0.09,-1.01 0.44,-1.79 1.05,-2.32 0.61,-0.53 1.43,-0.8 2.45,-0.8 1.03,0 1.86,0.29 2.46,0.86 0.6,0.57 0.91,1.29 0.91,2.14 0,0.43 -0.09,0.86 -0.27,1.27 -0.18,0.42 -0.47,0.86 -0.88,1.32 -0.41,0.46 -1.09,1.09 -2.04,1.9 -0.8,0.67 -1.31,1.12 -1.53,1.36 -0.23,0.24 -0.41,0.48 -0.56,0.72l5.3 0zm5.67 1.27l0 -2.58 -4.69 0 0 -1.22 4.93 -6.99 1.08 0 0 6.99 1.46 0 0 1.22 -1.46 0 0 2.58 -1.33 0zm0 -3.8l0 -4.85 -3.38 4.85 3.38 0z"/>
 </g>
</svg>
